<?xml version="1.0" encoding="UTF-8" standalone="no"?>
<!DOCTYPE svg PUBLIC "-//W3C//DTD SVG 1.1//EN" "http://www.w3.org/Graphics/SVG/1.1/DTD/svg11.dtd">
<svg width="100%" height="100%" viewBox="0 0 432 432" version="1.1" xmlns="http://www.w3.org/2000/svg" xmlns:xlink="http://www.w3.org/1999/xlink" xml:space="preserve" xmlns:serif="http://www.serif.com/" style="fill-rule:evenodd;clip-rule:evenodd;stroke-linejoin:round;stroke-miterlimit:2;">
    <g transform="matrix(0.209709,0,0,0.209709,0,0)">
        <rect x="0" y="0" width="2060" height="2060" style="fill:rgb(105,62,38);"/>
    </g>
    <path d="M214.443,95.954C279.839,95.954 332.932,149.047 332.932,214.443C332.932,279.839 279.839,332.932 214.443,332.932C149.047,332.932 95.954,279.839 95.954,214.443C95.954,149.047 149.047,95.954 214.443,95.954ZM266.583,237L266.527,237L266.527,260.833C266.527,265.278 261.859,268.886 256.11,268.886C250.843,268.886 246.484,265.858 245.79,261.932C245.819,261.616 245.833,261.297 245.833,260.973L245.833,235.417C245.833,229.668 241.166,225 235.417,225C229.668,225 225,229.668 225,235.417L225,237L224.86,237L224.86,274.443C224.86,280.192 220.192,284.86 214.443,284.86C208.694,284.86 204.027,280.192 204.027,274.443L204.027,235.417C204.027,229.668 199.359,225 193.61,225C187.861,225 183.193,229.668 183.193,235.417L183.193,260.833C183.193,265.278 178.526,268.886 172.777,268.886C167.319,268.886 162.836,265.634 162.395,261.503C162.41,261.281 162.417,261.058 162.417,260.833L162.417,235.277C162.417,229.527 157.749,224.86 152,224.86L114.973,224.86C120.187,275.166 162.764,314.45 214.443,314.45C266.123,314.45 308.699,275.166 313.913,224.86L277,224.86C271.251,224.86 266.583,229.527 266.583,235.277L266.583,237ZM162.397,167.375C162.844,163.247 167.324,160 172.777,160C178.526,160 183.193,163.609 183.193,168.054L183.193,193.583C183.193,199.332 187.861,204 193.61,204C199.359,204 204.027,199.332 204.027,193.583L204.027,154.443C204.027,148.694 208.694,144.027 214.443,144.027C220.192,144.027 224.86,148.694 224.86,154.443L224.86,193.583C224.86,199.332 229.527,204 235.277,204C241.026,204 245.693,199.332 245.693,193.583L245.693,168.054C245.693,163.609 250.361,160 256.11,160C261.859,160 266.527,163.609 266.527,168.054L266.527,190L266.583,190L266.583,193.583C266.583,199.332 271.251,204 277,204L277,204.027L313.913,204.027C308.699,153.721 266.123,114.436 214.443,114.436C162.764,114.436 120.187,153.721 114.973,204.027L152,204.027L152,204C157.749,204 162.417,199.332 162.417,193.583L162.417,168.027C162.417,167.808 162.41,167.59 162.397,167.375Z" style="fill:rgb(243,229,221);"/>
</svg>
